<svg id="e1jBRAt2pPf1" xmlns="http://www.w3.org/2000/svg" xmlns:xlink="http://www.w3.org/1999/xlink" viewBox="0 0 1920 1080" shape-rendering="geometricPrecision" text-rendering="geometricPrecision">
<defs><linearGradient id="e1jBRAt2pPf44-fill" x1="487.74" y1="548.48" x2="1472.74" y2="548.48" spreadMethod="pad" gradientUnits="userSpaceOnUse" gradientTransform="translate(0 0)"><stop id="e1jBRAt2pPf44-fill-0" offset="0%" stop-color="rgba(255,255,255,0)"/><stop id="e1jBRAt2pPf44-fill-1" offset="100%" stop-color="rgba(255,255,255,0.33)"/></linearGradient><linearGradient id="e1jBRAt2pPf45-fill" x1="487.74" y1="548.48" x2="1472.74" y2="548.48" spreadMethod="pad" gradientUnits="userSpaceOnUse" gradientTransform="translate(0 0)"><stop id="e1jBRAt2pPf45-fill-0" offset="66%" stop-color="rgba(255,255,255,0)"/><stop id="e1jBRAt2pPf45-fill-1" offset="100%" stop-color="#fff"/></linearGradient></defs><g><rect width="1921" height="1080" rx="0" ry="0" fill="#f2ebea"/><g id="e1jBRAt2pPf4_ts" transform="translate(997.56459,1019.778184) scale(1,1)"><g transform="translate(-997.56459,-1019.778184)"><g><rect width="656.35" height="30" rx="0" ry="0" transform="translate(1123.65 317)" fill="#f2ebea"/><line x1="1123.65" y1="318" x2="1780" y2="318" fill="none" stroke="#e5e1e1" stroke-width="2" stroke-linecap="round" stroke-linejoin="round"/><line x1="1780" y1="347" x2="1123.65" y2="347" fill="none" stroke="#e5e1e1" stroke-width="2" stroke-linecap="round" stroke-linejoin="round"/><g><path d="M1287.47,275c0,0-15.47-45.71-15.47-55.14c0-28.67,22.58-44.16,32.44-34c21.88,22.63,2.12,54,5.9,88.41Z" fill="#e5e1e1"/><path d="M1303.71,240.51c0,0,9,2.06,12.76-8.06c4.35-11.66,11.56-21.28,20.43-16.84c9.25,4.63-2.89,26.5-10.56,33.2-9.68,8.44-16.56,8.38-24.14,8.29" fill="#e5e1e1"/><path d="M1324.57,263.68h-53.39c0,0-8.4,3.43-8.4,23.16c0,17.06,18,31.16,18,31.16h34.22c0,0,18-14.1,18-31.16c0-19.73-8.43-23.16-8.43-23.16Z" fill="#e5e1e1"/></g><g><rect width="41" height="175" rx="0" ry="0" transform="translate(1549 143)" fill="#e5e1e1"/><rect width="41" height="193" rx="0" ry="0" transform="translate(1496 125)" fill="#e5e1e1"/><rect width="41" height="193" rx="0" ry="0" transform="translate(1445 125)" fill="#e5e1e1"/><rect width="34.44" height="152.29" rx="0" ry="0" transform="matrix(.981992 0.188924-.188924 0.981992 1404.468178 161.977396)" fill="#e5e1e1"/></g><path d="M1746,296c-13.39,0-14.91,20.21-31.08,20.21s-13.39-19-29.3-19-14.4,19-32.59,19-15.66-19-29.81-19c-7.58,0-14.91,8.85-14.91,8.85" fill="none" stroke="#e5e1e1" stroke-width="6" stroke-linecap="round" stroke-linejoin="round"/></g><g><rect width="405.38" height="282.25" rx="26" ry="0" transform="translate(215.31 234.44)" fill="#f2ebea"/><path d="M594.69,236.44c13.254834,0,24,10.745166,24,24v230.25c0,6.365196-2.528564,12.46969-7.029437,16.970563s-10.605367,7.029437-16.970563,7.029437h-353.38c-13.254834,0-24-10.745166-24-24v-230.25c0-13.254834,10.745166-24,24-24h353.38m0-4h-353.38c-15.463973,0-28,12.536027-28,28v230.25c0,7.426062,2.949992,14.547971,8.20101,19.79899s12.372928,8.20101,19.79899,8.20101h353.38c15.463973,0,28-12.536027,28-28v-230.25c0-15.463973-12.536027-28-28-28Z" fill="#e5e1e1"/><rect width="373.38" height="250.25" rx="10" ry="0" transform="translate(231.31 250.44)" fill="#f2ebea"/><path d="M594.69,252.44c4.418278,0,8,3.581722,8,8v230.25c0,4.418278-3.581722,8-8,8h-353.38c-4.418278,0-8-3.581722-8-8v-230.25c0-4.418278,3.581722-8,8-8h353.38m0-4h-353.38c-6.627417,0-12,5.372583-12,12v230.25c0,6.627417,5.372583,12,12,12h353.38c6.627417,0,12-5.372583,12-12v-230.25c0-6.627417-5.372583-12-12-12Z" fill="#e5e1e1"/><path d="M472.18,498.69c0-95.2-82.81-172.38-110.82-172.38s-110.81,77.18-110.81,172.38" fill="#e5e1e1"/><path d="M595.3,498.69c0-55.54-48.3-100.55-64.64-100.55s-64.66,45.01-64.66,100.55" fill="#e5e1e1"/><circle r="34.48" transform="translate(531.27 314)" fill="#e5e1e1"/></g></g></g></g><g id="e1jBRAt2pPf27_ts" transform="translate(948.247544,1011.204602) scale(1,1)"><g transform="translate(-951.039896,-1000.457358)"><g><g><path d="M1652.2,792c0,0,19.38,1.08,19.38,12.92s-15.07,9.7-15.07,17.23s12.92,10.77,18.3,19.39c4.91,7.85,4.31,24.77,4.31,34.46s-1.07,14-1.07,14h-25.85Z" fill="#ed8e12"/><path d="M1652.2,792c0,0-19.39,1.08-19.39,12.92s15.08,9.7,15.08,17.23-12.92,10.77-18.31,19.39c-4.91,7.85-4.3,24.77-4.3,34.46s1.07,14,1.07,14h25.85Z" fill="#2c9787"/><path d="M1668.65,838.31c-5.14-3.23-10-4.37-16.45-4.37s-11.31,1.14-16.45,4.37-8.68,9.69-8.68,9.69h50.26c0,0-3.54-6.46-8.68-9.69Z" fill="#273850"/></g><g><polygon points="1314.22,801 1275.49,801 1292.28,891 1314.22,891 1336.16,891 1352.96,801 1314.22,801" fill="#7f8da0"/><path d="M1342.64,820c0,0,22.39-12.16,28.86.55c10.88,21.37-34.78,38.53-34.78,38.53" fill="none" stroke="#7f8da0" stroke-width="9.47" stroke-linecap="round" stroke-linejoin="round"/></g><rect width="61" height="24" rx="0" ry="0" transform="translate(1245 868)" fill="#f1d378"/><g><g><path d="M1431.33,868h207v0c0,12.702549-10.297451,23-23,23h-161c-12.702549,0-23-10.297451-23-23v0Z" fill="#d3d4d9"/><path d="M1540.83,829.05v0c13.459179,0,24.37,10.910821,24.37,24.37v27.52h-48.75v-27.51c-.002654-6.466791,2.565093-12.669482,7.137806-17.242194s10.775403-7.14046,17.242194-7.137806Z" fill="#d3d4d9"/><path d="M1540.33,880v0c-30.37,0-55,31.07-55,61.44v82.56c0,14.911688-12.088312,27-27,27v0c-14.911688,0-27-12.088312-27-27v-82.56" fill="none" stroke="#d0cccd" stroke-width="4" stroke-linecap="round" stroke-linejoin="round"/></g><g id="e1jBRAt2pPf42_to" transform="translate(1573.515,562.876976)"><g id="e1jBRAt2pPf42_tr" transform="rotate(0)"><g transform="translate(-1573.515,-562.876976)"><line x1="1573.7" y1="487.27" x2="1573.33" y2="560.98" fill="none" stroke="#bfc2c9" stroke-width="16" stroke-linecap="round" stroke-linejoin="round"/><polyline points="1472.74,376.98 487.74,30.98 487.74,1065.98 1472.74,562.98" fill="url(#e1jBRAt2pPf44-fill)"/><polyline points="1472.74,376.98 487.74,30.98 487.74,1065.98 1472.74,562.98" fill="url(#e1jBRAt2pPf45-fill)"/><path d="M1559,429.31c2.5,2.66,9.15,5.51,12.84,5.51h49.5c11.13,0,16.55,17.81,16.26,35.16.29,17.35-5.13,35.16-16.26,35.16h-49.5c-3.69,0-10.34,2.85-12.84,5.51Z" fill="#7f8da0"/><path d="M1472.74,377h27.93c15.573512,0,30.509174,6.186554,41.52131,17.19869s17.19869,25.947798,17.19869,41.52131v68.56c0,15.573513-6.186554,30.509175-17.19869,41.521311s-25.947799,17.198689-41.52131,17.198689h-27.93v-186Z" fill="#ed8e12"/></g></g></g><g id="e1jBRAt2pPf48_to" transform="translate(1722.929773,692.306976)"><g id="e1jBRAt2pPf48_tr" transform="rotate(-0.086026)"><g transform="translate(-1722.846755,-692.41)"><line x1="1722.33" y1="692.41" x2="1573.33" y2="562.98" fill="none" stroke="#bfc2c9" stroke-width="16" stroke-linecap="round" stroke-linejoin="round"/><circle r="20.8" transform="translate(1722.33 692.41)" fill="#d3d4d9"/><circle r="16.44" transform="translate(1573.33 562.98)" fill="#d3d4d9"/><circle r="6.84" transform="translate(1573.33 562.98)" fill="#bfc2c9"/></g></g></g><g id="e1jBRAt2pPf53_tr" transform="translate(1540.83,855.581436) rotate(0)"><line x1="1722.33" y1="692.41" x2="1540.83" y2="855" transform="translate(-1540.83,-855.581436)" fill="none" stroke="#bfc2c9" stroke-width="16" stroke-linecap="round" stroke-linejoin="round"/></g></g><g transform="matrix(1.240831 0 0 1.240831-423.761949-214.580421)"><path d="M1748.39,786c0,0-37,29-27,54c12.3,30.74,57,26,57,26s-20-14-21-38c-.512993-15.107165.830386-30.220178,4-45l-28-23c4.104399,9.153407,9.130329,17.865019,15,26Z" fill="#273850"/><path d="M1757.39,828c0,15,23,43,46.49,63h-28.49c0,0-20-31-18-63Z" fill="#273850"/><polyline points="1715.13,891 1746.39,833 1733.39,891" fill="none" stroke="#273850" stroke-width="4" stroke-miterlimit="10"/></g></g><g id="e1jBRAt2pPf58_to" transform="translate(830.822143,889.94)"><g transform="translate(-830.822143,-889.94)"><g><g><path d="M762.21,598.54c0,0-51.21-28.54-141.21-23.54s-136,38-140,46-1,85,15,133s58,151,58,151s204.5-6,233.5-3c1.5-89-25.29-303.46-25.29-303.46Z" fill="#bfc2c9"/><path d="M733.5,631.5c0,0-76-12-138.5-3.5-56.49,7.68-84,37-84,37-4,75,39,150,62.5,212.5c111-29,184-35,184-35Z" fill="#d3d4d9"/></g><g id="e1jBRAt2pPf63_to" transform="translate(877.870265,670.590273)"><g id="e1jBRAt2pPf63_tr" transform="rotate(0)"><g transform="translate(-842.65,-658.995233)"><path id="e1jBRAt2pPf64" d="M843.25,746.85l77.67-29.54L972,799c0,0,98.49,47.22,114.3,47.32s-4.3,37.68-4.3,37.68-136.07-7-136.07-7-64.21-63.81-102.68-130.15Z" fill="#f1a18f"/><polygon points="824.05,734.71 916.69,688.19 929.48,714.52 836.25,759.13 824.05,734.71" fill="#3e9497"/><path d="M922.69,700.18c0,0-19.56-39.44-30.69-56.73s-27.64-39.86-68.14-22.45c-34.17,14.67-32.13,49.77-19.51,75c10.88,21.73,25.21,48.24,25.21,48.24Z" fill="#3b637c"/></g></g></g><g id="e1jBRAt2pPf67_tr" transform="translate(752.011668,959) rotate(10.437398)"><path id="e1jBRAt2pPf67" d="M591.630918,689.597059C590.630918,623.023767,685.37,583.65,734,582c59-2,92.071828,28.305271,113.071828,52.305271c32.675375,45.174053,50.924517,138.035152,45.943883,273.757445-9.820707,128.108547-209.122546,162.190568-272.797698,29.457755-13.696745-28.638649-30.71773-143.018171-28.587095-247.923412Z" transform="translate(-752.011668,-959)" fill="#3b637c"/></g><g id="e1jBRAt2pPf68_to" transform="translate(685.959628,680.962106)"><g id="e1jBRAt2pPf68_tr" transform="rotate(-22.236022)"><g transform="translate(-622.776938,-677.822196)"><g><path id="e1jBRAt2pPf70" d="M605,758l83-4c0,0,30.892572,79.683392,30.892572,79.683392c33.209299-44.902644,51.818748-48.301036,82.61521-103.874222c4.230998-.378002,19.991712,2.331414,28.415056,6.703343c12.33801,12.861864-67.962544,220.792591-147.958585,177.219336C657.594078,895.349473,621,833,605,758Z" fill="#f1a18f"/><path d="M695,738.26c0,0-6.37-43.56-11.61-63.46s-13.89-46.46-57.79-42.48c-37,3.35-46,37.35-41.8,65.22c3.61,24,9,53.69,9,53.69Z" fill="#3b637c"/><polygon points="590.51,740.5 693,725 697,754 594.53,767.5 590.51,740.5" fill="#3e9497"/></g></g></g></g><g id="e1jBRAt2pPf73_to" style="offset-path:path('M1135.687683,862.414253L1088.210164,859.08L1088.210164,859.08L1006.538758,573.257667L1014.387873,536.306358L1006.538758,573.257667L1088.210164,859.08L1088.210164,859.08L1077.440869,860.874883L1088.210164,859.08L1077.440869,860.874883L1088.210164,859.08L1077.440869,860.874883L1088.210164,859.08L1077.440869,860.874883L1088.210164,859.08L1177.802103,852.263222L1073.288878,451.945739C1146.663229,606.864525,1125.398405,784.387223,1088.210164,859.08L1088.210164,859.08L1077.440869,860.874883L1088.210164,859.08L1077.440869,860.874883L1088.210164,859.08L1077.440869,860.874883L1088.210164,859.08L1077.440869,860.874883L1077.440869,860.874883C1180.789032,816.081621,1202.032715,623.317008,1180.812342,555.320973C1200.353226,621.382658,1177.115732,811.317118,1077.440869,860.874883L1088.210164,859.08L1061.589576,865.313245L1088.210164,859.08L1048.591516,864.679193L1088.210164,859.08L1056.200136,864.045142L1088.210164,859.08L1077.440869,860.874883L1067.3511,861.682064Q1177.115732,811.317118,1077.440869,860.874883L1088.210164,859.08L1061.589576,865.313245L1088.210164,859.08L1048.591516,864.679193L1088.210164,859.08L1056.200136,864.045142L1088.210164,859.08L1077.440869,860.874883L1067.3511,861.682064Q1177.115732,811.317118,1077.440869,860.874883L1088.210164,859.08L1061.589576,865.313245L1088.210164,859.08L1048.591516,864.679193L1088.210164,859.08L1056.200136,864.045142L1088.210164,859.08L1077.440869,860.874883L1067.3511,861.682064Q1177.115732,811.317118,1077.440869,860.874883L1088.210164,859.08L1061.589576,865.313245L1088.210164,859.08L1048.591516,864.679193L1088.210164,859.08L1056.200136,864.045142L1088.210164,859.08L1077.440869,860.874883L1067.3511,861.682064Q1177.115732,811.317118,1077.440869,860.874883L1088.210164,859.08L1061.589576,865.313245L1088.210164,859.08L1048.591516,864.679193L1088.210164,859.08L1056.200136,864.045142L1088.210164,859.08L1077.440869,860.874883L1067.3511,861.682064Q1177.115732,811.317118,1077.440869,860.874883L1088.210164,859.08L1061.589576,865.313245L1088.210164,859.08L1048.591516,864.679193L1088.210164,859.08L1056.200136,864.045142L1088.210164,859.08L1077.440869,860.874883L1067.3511,861.682064Q1177.115732,811.317118,1077.440869,860.874883L1088.210164,859.08L1061.589576,865.313245L1088.210164,859.08L1048.591516,864.679193L1088.210164,859.08L1056.200136,864.045142L1088.210164,859.08L1077.440869,860.874883L1067.3511,861.682064Q1177.115732,811.317118,1077.440869,860.874883L1088.210164,859.08L1061.589576,865.313245L1088.210164,859.08L1048.591516,864.679193L1088.210164,859.08L1056.200136,864.045142L1088.210164,859.08L1077.440869,860.874883L1067.3511,861.682064Q1177.115732,811.317118,1077.440869,860.874883L1088.210164,859.08L1061.589576,865.313245L1088.210164,859.08L1048.591516,864.679193L1088.210164,859.08L1056.200136,864.045142L1088.210164,859.08L1077.440869,860.874883L1067.3511,861.682064Q1177.115732,811.317118,1077.440869,860.874883');offset-rotate:0deg"><g id="e1jBRAt2pPf73_tr" transform="rotate(0)"><g transform="translate(-1088.210164,-859.08)"><path id="e1jBRAt2pPf74" d="M1095.42,840.63c33.91-11.19,64.943911,20.036283,74.698142,48.37c0,0-46.468142.505-46.468142.505-9.176214.433512-19.81,1.495-35.73,1.495-9.685401.495323-25.851939,3.157326-31.34589-11.159624C1061.053878,871.840792,1059.23,852.58,1095.42,840.63Z" fill="#f1a18f"/><g id="e1jBRAt2pPf75_tr" transform="translate(1095.42,839.619249) rotate(24.058289)"><path d="M1095.42,840.63c0,0,36.58-16.63,51.58-13.63s32,25,32,25l-10,2c0,0-13-12-23-14s-38,19-38,19Z" transform="translate(-1095.42,-839.619249)" fill="#f1a18f"/></g></g></g></g></g><g id="e1jBRAt2pPf76_to" transform="translate(827.53745,623.54818)"><g id="e1jBRAt2pPf76_tr" transform="rotate(22.195578)"><g id="e1jBRAt2pPf76_ts" transform="scale(1,1)"><g transform="translate(-746.583954,-602.333769)"><polygon points="705.74,573.46 781.97,573.46 797.993736,584.542918 762.97,627.27 757.52,627.27 694.99,584.82 705.74,573.46" fill="#3b637c"/><polygon points="727.97,522.49 715.34,581.05 756.97,608.49 776.97,581.49 781.97,540.49 727.97,522.49" fill="#f29885"/><path d="M774.46,538L728,522.49L721.17,554c9.75,2.66,28.83,3.57,53.29-16Z" fill="#f18085"/><g id="e1jBRAt2pPf80_to" transform="translate(767.925394,567.094184)"><g id="e1jBRAt2pPf80_tr" transform="rotate(6.250693)"><g transform="translate(-759.447525,-544.218714)"><path d="M822.58,480.83c0,0,15.82-1.38,15.8,11.72c0,11.42-13,18.92-24.45,18.77c3.512742-9.974148,6.401653-20.157144,8.65-30.49Z" fill="#f18085"/><path d="M822,459.49c0,0,17,0,18-21s-21-30-33-34c6.156201,17.998251,11.166231,36.368359,15,55Z" fill="#464686" stroke="#464686" stroke-width="4" stroke-linecap="round" stroke-linejoin="round"/><path d="M779,382.49c34,0,53.2,29.88,53.2,62.88c0,47.85-13,102.12-54.2,102.12s-61-20-71-38-14-50-11-71s32-56,83-56Z" transform="translate(.719049-1.083118)" fill="#f29885"/><path d="M759,486.08c-.002492,2.050699-1.141612,3.930997-2.958069,4.882763s-4.010825.818108-5.69834-.347081-2.590006-3.16984-2.343591-5.205682l.12-2c.002492-2.050699,1.141612-3.930997,2.958069-4.882763s4.010825-.818108,5.69834.347081s2.590006,3.16984,2.343591,5.205682Z" fill="#273850"/><path d="M817.75,487.56c-.002492,2.050699-1.141612,3.930997-2.958069,4.882763s-4.010825.818108-5.69834-.347081-2.590006-3.16984-2.343591-5.205682l.12-2c.002492-2.050699,1.141612-3.930997,2.958069-4.882763s4.010825-.818108,5.69834.347081s2.590006,3.16984,2.343591,5.205682Z" fill="#273850"/><path id="e1jBRAt2pPf86" d="M744.111475,459.126514c1.831989.060735,6.409755.799167,11.937464.390405c5.637224-.140349,7.282344-.511368,8.381325-.726069" fill="none" stroke="#273850" stroke-width="4" stroke-linecap="round" stroke-linejoin="round"/><path id="e1jBRAt2pPf87" d="M802,462.49c0,0,7,2,12,1c0,0,5-1,5-1" fill="none" stroke="#273850" stroke-width="4" stroke-linecap="round" stroke-linejoin="round"/><path id="e1jBRAt2pPf88" d="M773.752268,507.674152c4.927072-1.273232,13.370681-2.04825,18.054956-.45982" fill="none" stroke="#273850" stroke-width="4" stroke-linecap="round" stroke-linejoin="round"/><path id="e1jBRAt2pPf89" d="M-14.365018,6.727071c2.478617.675333,5.043331,6.968915,16.764418,7.0354c14.271796-.153522,9.067973-7.834523,15.512383-8.509856c8.444497.654249.193433,15.514649-14.994398,15.514649s-23.952243-11.727357-17.282403-14.040193Z" transform="matrix(.470279 0.022343-.023838 0.501739 781.852024 500.82437)" opacity="0" fill="#273850"/><path d="M799.71,436.28c14.8.78,19.26-4.29,29.59-12.41c7.05-28-1.41-47.47-15.33-54.38-6.82-3.39-22,0-22,0s-5.25-16.7-26.36-20c-42.82-6.77-64.26,13.41-76.93,30.74-7.94,10.87,0,22,0,22s-16.75,8.34-16.12,28.32c.79,25.21,19.41,29,19.41,29v-12c0,0,26.66-21.55,55.84-21.55c29.94-.06,37.11,9.5,51.9,10.28Z" fill="#464686" stroke="#464686" stroke-width="4" stroke-linecap="round" stroke-linejoin="round"/><path d="M695,484.15l12.56,1.22l9.55.93c0,0,2.28-38.65,8.69-55.81-16.27,1.5-36.48,15.89-36.48,15.89Z" fill="#464686" stroke="#464686" stroke-width="4" stroke-linecap="round" stroke-linejoin="round"/><path d="M838,390.8c4.17,21.6-8.69,33.07-8.69,33.07s12.86-5.4,18.16-14.88" fill="none" stroke="#464686" stroke-width="4" stroke-linecap="round" stroke-linejoin="round"/><path d="M698,479.73c-3.7,0-13.52,1.15-13.52,14.15s16.52,19.61,29.52,18.61c-1.41-10.84-2.54-18.61-4.54-24.73-1.646866-4.899311-6.292809-8.154714-11.46-8.03Z" fill="#f29885"/></g></g></g><polygon points="715.34,581.05 705.74,573.46 692.273648,588.161135 754.980357,630.488474 765.082169,630.806417 798.649725,584.34439 781.97,573.46 776.97,581.49 756.97,608.49 715.34,581.05" fill="#3e9497"/></g></g></g></g><g id="e1jBRAt2pPf95_to" style="offset-path:path('M891.58971,660.473496L743.321676,873.15411L743.321676,873.15411C749.312582,802.837862,583.315058,830.803603,580.240617,866.888818L931.158714,483.646519C1102.71224,788.046827,825.511052,882.392959,743.321676,873.15411Q745.00757,872.330024,743.321676,873.15411Q546.327503,711.460676,464.138127,702.221827Q392.50835,331.944261,390.822456,255.13999C392.637973,543.722695,532.490366,789.849292,743.321676,873.15411L743.121252,872.464603L842.577173,857.954787L827.260681,860.045669L842.577173,857.954787L827.260681,860.045669L842.577173,857.954787L827.260681,860.045669L842.577173,857.954787L827.260681,860.045669Q742.840372,871.498308,743.321676,873.15411Q626.054926,787.077009,836.886236,870.381826Q743.532313,873.57413,743.321676,873.15411L743.121252,872.464603L842.577173,857.954787L827.260681,860.045669L842.577173,857.954787L827.260681,860.045669L842.577173,857.954787L827.260681,860.045669L842.577173,857.954787L842.577173,857.954787L780.394926,868.37366L780.394926,868.37366L822.921131,861.130556L780.394926,868.37366L780.394926,868.37366L842.577173,857.954787L827.260681,860.045669L842.577173,857.954787L827.260681,860.045669L842.577173,857.954787L827.260681,860.045669L842.577173,857.954787L842.577173,857.954787L842.577173,857.954787L827.260681,860.045669L842.577173,857.954787L827.260681,860.045669L842.577173,857.954787L827.260681,860.045669L842.577173,857.954787L827.260681,860.045669L842.577173,857.954787L827.260681,860.045669L842.577173,857.954787L827.260681,860.045669L842.577173,857.954787L827.260681,860.045669L842.577173,857.954787L827.260681,860.045669L842.577173,857.954787L827.260681,860.045669L842.577173,857.954787L842.577173,857.954787L842.577173,857.954787L827.260681,860.045669L842.577173,857.954787L827.260681,860.045669L842.577173,857.954787L827.260681,860.045669L842.577173,857.954787L827.260681,860.045669L842.577173,857.954787L827.260681,860.045669L842.577173,857.954787L827.260681,860.045669L842.577173,857.954787L827.260681,860.045669L842.577173,857.954787L827.260681,860.045669L842.577173,857.954787L827.260681,860.045669L842.577173,857.954787L842.577173,857.954787L842.577173,857.954787L827.260681,860.045669L842.577173,857.954787L827.260681,860.045669L842.577173,857.954787L827.260681,860.045669L842.577173,857.954787L827.260681,860.045669L842.577173,857.954787L827.260681,860.045669L842.577173,857.954787L827.260681,860.045669L842.577173,857.954787L827.260681,860.045669L842.577173,857.954787L827.260681,860.045669L842.577173,857.954787L827.260681,860.045669L842.577173,857.954787L842.577173,857.954787L842.577173,857.954787L827.260681,860.045669L842.577173,857.954787L827.260681,860.045669L842.577173,857.954787L827.260681,860.045669L842.577173,857.954787L827.260681,860.045669L842.577173,857.954787L827.260681,860.045669L842.577173,857.954787L827.260681,860.045669L842.577173,857.954787L827.260681,860.045669L842.577173,857.954787L827.260681,860.045669L842.577173,857.954787L827.260681,860.045669L842.577173,857.954787L842.577173,857.954787L842.577173,857.954787');offset-rotate:0deg"><g id="e1jBRAt2pPf95_tr" transform="rotate(-117.780453)"><g transform="translate(-743.321676,-873.15411)"><path id="e1jBRAt2pPf96" d="M760.09,844.13C795,835.21,823,867,823,867c-13.406097-3.24984-5.1913,13.621419-16.630383,21.33065-19,13-22.894335,3.953307-38.814335,3.953307-9.866624,1.466887-18.633479.827832-28.600586-8.034115C721.961605,866.557716,741.12,849,760.09,844.13Z" fill="#f1a18f"/><g id="e1jBRAt2pPf97_tr" transform="translate(760.049562,844.120674) rotate(17.77081)"><path d="M761.046302,844.330422c4.001859-3.638724,26.479063-15.94315,49.247671-12.826746C828.086015,834.856325,843.67,855.5,843.67,855.5l-10,2c0,0-13-12-23-14s-38,19-38,19Z" transform="translate(-760.049562,-844.120674)" fill="#f1a18f"/></g></g></g></g></g></g><g id="e1jBRAt2pPf98_to" style="offset-path:path('M860.162267,610.590958L860.699575,614.889417L856.401115,607.367113L856.401115,607.367113L856.401115,607.367113Q752.984424,469.32565,654.593268,887.675091L651.736183,883.389463L646.379148,886.960819');offset-rotate:0deg"><g id="e1jBRAt2pPf98_tr" transform="rotate(25.956862)"><polygon points="501.64,794.72 499.86,801.99 499.94,801.94 532.56,855.69 541.52,850.25 508.9,796.5 501.64,794.72" transform="translate(-538.648314,-852.008975)" fill="#f1d378"/></g></g><g id="e1jBRAt2pPf99_to" style="offset-path:path('M1274.825562,743.944165L1283.627172,483.203572L1277.183645,537.920971C1259.978198,316.48058,1594.152722,465.559117,1662.709406,245.481441C1686.612116,121.013057,1602.023477,8.047533,1428.045997,57.35412');offset-rotate:0deg"><polygon id="e1jBRAt2pPf99" points="1293,768 1275.96,773.82 1237.68,781.48 1225.52,720.68 1286.32,708.52 1293.61,745 1293,768" transform="translate(-1259.565,-745)" fill="#f1d378"/></g><g><rect width="1685" height="30" rx="0" ry="0" transform="matrix(1 0 0 6.296442 147 890)" fill="#f2ebea"/><g><polygon points="532.42,760.96 527.13,766.25 527.23,766.25 527.23,829.12 537.71,829.12 537.71,766.25 532.42,760.96" fill="#3e9497"/><polygon points="501.64,794.72 499.86,801.99 499.94,801.94 532.56,855.69 541.52,850.25 508.9,796.5 501.64,794.72" fill="#f1d378"/><polygon points="583.81,778.06 576.66,780.24 576.74,780.28 547.18,835.78 556.43,840.71 585.99,785.21 583.81,778.06" fill="#a6cc81"/><polygon points="559.56,790.61 553.24,794.61 553.33,794.63 539.51,855.97 549.73,858.27 563.56,796.93 559.56,790.61" fill="#7f8da0"/><rect width="53.71" height="68.12" rx="0" ry="0" transform="translate(512.82 823.88)" fill="#7f8da0"/></g><g><path d="M1195.14,917h258.72v.36c0,8.39145-3.33349,16.439208-9.267141,22.372859s-13.981409,9.267141-22.372859,9.267141h-195.44c-8.39145,0-16.439208-3.33349-22.372859-9.267141s-9.267141-13.981409-9.267141-22.372859v-.36Z" fill="#f2ebea" stroke="#d0cccd" stroke-width="2.04" stroke-linecap="round" stroke-linejoin="round"/><path d="M1480,916v12c0,23.195959-18.804041,42-42,42h-227c-23.195959,0-42-18.804041-42-42v-12h311m2-2h-315v14c0,24.300529,19.699471,44,44,44h227c24.300529,0,44-19.699471,44-44v-14Z" fill="#d0cccd"/><line x1="1288" y1="941.44" x2="1288" y2="1080" fill="none" stroke="#d0cccd" stroke-width="4" stroke-linecap="round" stroke-linejoin="round"/></g><rect width="1685" height="30" rx="0" ry="0" transform="matrix(1 0 0 1.000711 147 890)" fill="#f2ebea"/><line x1="1832" y1="920" x2="147" y2="920" fill="none" stroke="#d0cccd" stroke-width="2.07" stroke-linecap="round" stroke-linejoin="round"/><line x1="147" y1="891" x2="1832" y2="891" fill="none" stroke="#d0cccd" stroke-width="2.07" stroke-linecap="round" stroke-linejoin="round"/></g><g><g><path d="M867,890v-21h332c8.67,0,10.65,16.62,11,21Z" fill="#f2ebea"/><path d="M1199,870c6.67,0,9.27,12.24,9.94,19L868,889v-19h331m0-2h-333v23h345.09c0,0-1.09-23-12.09-23Z" fill="#d0cccd"/><path d="M832.62,891c0,0,22.38-23,33.38-23s12.09,23,12.09,23Z" fill="#d0cccd"/></g><g><path d="M762.07,890c4.62-5.59,21.47-24,42.93-24c24.48,0,35.28,3.37,37.65,24Z" fill="#f2ebea"/><path d="M805,867c11.6,0,20.55.7,26.58,4.12c5.59,3.16,8.7,8.72,9.93,17.88h-77.27c6-6.77,21.49-22,40.76-22m0-2c-26,0-45,26-45,26h83.76c-2.24-23-14.68-26-38.76-26Z" fill="#d0cccd"/><path d="M760,891c0,0,22-23,33-23s12.09,23,12.09,23Z" fill="#d0cccd"/></g><rect width="62" height="62" rx="0" ry="0" transform="translate(1179 798)" fill="#f1d378"/><polygon points="926.46,825.52 909.42,831.34 871.14,839 858.98,778.21 919.77,766.04 927.07,802.52 926.46,825.52" fill="#f1d378"/><g><path id="e1jBRAt2pPf127" d="M1074,624.86L1073.84356,604.643976" fill="none" stroke="#d0cccd" stroke-width="8" stroke-linecap="round" stroke-linejoin="round" stroke-dashoffset="20.22" stroke-dasharray="0.01,18"/><g id="e1jBRAt2pPf128_to" transform="translate(1073.694776,633.551089)"><g id="e1jBRAt2pPf128_ts" transform="scale(0,0)"><circle r="20" transform="translate(0,0)" fill="#7797e0"/></g></g><g id="e1jBRAt2pPf129_ts" transform="translate(1073.550795,481.62021) scale(0,0)"><g transform="translate(-1074,-498.689987)"><rect width="85.2" height="85.2" rx="16" ry="16" transform="translate(1031.4 456.09)" fill="#7797e0" stroke-width="2.43" stroke-linecap="round" stroke-linejoin="round"/><path d="M1063.93,514v-30.59c-.001403-.983919.590663-1.871579,1.499609-2.248299s1.955357-.168139,2.650391.528299L1083.36,497c.456773.455853.713463,1.074675.713463,1.72s-.25669,1.264147-.713463,1.72l-15.28,15.27c-.693748.695155-1.737737.904371-2.645775.530215s-1.501586-1.258116-1.504225-2.240215Z" fill="#f2ebea"/></g></g></g><path d="M1070.23,843.46c-57.08,0-114.91-.69-171.88-2.06-9.399004-.250701-16.857146-7.998264-16.75-17.4c1.239847-71.580426,6.246774-143.045967,15-214.1c1.16-9.3,9.69-17,19-17.28c57.17-1.37,115.1-2.06,172.17-2.06s114.9.69,171.88,2.06c9.391136.25061,16.846142,7.986012,16.75,17.38-1.23526,71.580626-6.242204,143.046408-15,214.1-1.15,9.3-9.68,17-19,17.28-57.17,1.39-115.1,2.08-172.17,2.08Z" fill="#f2ebea"/><path d="M1087.77,591.54q86,0,171.86,2.06c8.852219.245102,15.871667,7.544972,15.77,16.4-1.224916,71.547843-6.231905,142.980884-15,214-1.363841,9.060587-8.910273,15.913382-18.06,16.4q-86.14,2.05-172.14,2.06t-171.83-2.06c-8.852219-.245102-15.871667-7.544972-15.77-16.4c1.224916-71.547843,6.231905-142.980884,15-214c1.363841-9.060587,8.910273-15.913382,18.06-16.4q86.14-2.05,172.14-2.06m0-2c-57.08,0-115,.69-172.19,2.06-9.82.24-18.79,8.38-20,18.15-8.762226,71.10353-13.772503,142.6193-15.01,214.25-.123852,9.954135,7.768678,18.162901,17.72,18.43c57,1.37,114.83,2.06,171.91,2.06s115-.69,172.19-2.06c9.82-.24,18.79-8.38,20-18.15c8.758182-71.09373,13.76512-142.599477,15-214.22.123852-9.954135-7.768678-18.162901-17.72-18.43-57-1.37-114.83-2.06-171.91-2.06Z" fill="#d0cccd"/><path d="M898.37,840.4q171.72,4.13,344,0c9.149727-.486618,16.696159-7.339413,18.06-16.4c8.768095-71.019116,13.775084-142.452157,15-214c.075344-6.344041-3.559562-12.148165-9.3-14.85C1250.23,639.24,1213.58,716.9,1144,751c-75,36.75-259.54,12.89-260.12,27.7q-.9,22.65-1.28,45.3c-.101667,8.855028,6.917781,16.154898,15.77,16.4Z" fill="#e5e1e1"/><path d="M977,825.19c-15.09,0-25.41-4.78-25-10.69s11.4-10.69,26.49-10.69h192.51c15.09,0,25.41,4.78,25,10.69s-11.4,10.69-26.49,10.69Z" fill="#d0cccd"/><rect width="223" height="14" rx="0" ry="0" transform="translate(955 877)" fill="#d0cccd"/><path d="M1117.39,890c-5.05-29.89-16.81-46-25.39-46-2.5,0-5.07,1.32-7.46,3.81-5.7,6-11.41,20.16-10.58,42.19h-25.19L1048,731.4c-.064219-3.559049,1.300921-6.995311,3.79-9.54c2.56092-2.522167,6.025994-3.912519,9.62-3.86h32.15c7.974809.161484,14.786848,5.796748,16.44,13.6L1142.54,890Z" fill="#f2ebea"/><path d="M1093.56,719c7.496377.167936,13.891158,5.473451,15.44,12.81L1141.32,889h-23.09c-4.63-26.34-15.78-46-26.23-46-2.78,0-5.6,1.43-8.18,4.12-5.75,6-11.52,20.13-10.89,41.88h-23.17L1049,731.39c-.062252-3.290204,1.19867-6.467726,3.5-8.82c2.3722-2.334989,5.581801-3.620991,8.91-3.57h32.15m0-2h-32.15c-3.846424-.088333-7.561675,1.400089-10.283169,4.119694s-4.212494,6.433821-4.126831,10.280306l.77,159.6h27.23c-1.34-28.7,8.61-46,17-46s19.85,17.3,24.54,46h27.23L1111,731.4c-1.775853-8.256226-8.987-14.2138-17.43-14.4Z" fill="#d0cccd"/><path d="M1047,729c-3.6,46.55-6.74,98.4-13,114l13.54-.18Z" fill="#d0cccd"/><path d="M1218,941.44v54.06c0,21.262963-17.237037,38.5-38.5,38.5v0c-21.262963,0-38.5-17.237037-38.5-38.5v-54.06c0-28.28-22.93-57.44-51.22-57.44h-7.78" fill="none" stroke="#d0cccd" stroke-width="4" stroke-linecap="round" stroke-linejoin="round"/></g><g><g id="e1jBRAt2pPf142_to" style="offset-path:path('M1434.637014,818.159658Q1366.843743,428.015524,1319.58285,425.158805C1286.766746,424.563456,1282.415067,470.974535,1314.756069,472.101826C1433.870549,474.311144,1509.274917,368.620628,1492.866881,211.973645C1460.961523,84.62425,1224.667565,21.144996,1072.73337,-5.935695C742.856377,-59.866278,476.902908,316.324286,297.508973,307.506344C65.444955,314.012192,99.183295,73.572776,328.386666,13.671835C701.749742,-69.79741,846.551843,264.041361,1135.292621,253.241984C1427.20407,212.801032,1224.16931,20.589002,1072.73337,-5.935695C742.856377,-59.866278,476.902908,316.324286,297.508973,307.506344C65.444955,314.012192,99.183295,73.572776,328.386666,13.671835C701.749742,-69.79741,846.551843,264.041361,1135.292621,253.241984C1427.20407,212.801032,1224.16931,20.589002,1072.73337,-5.935695C742.856377,-59.866278,476.902908,316.324286,297.508973,307.506344C65.444955,314.012192,99.183295,73.572776,328.386666,13.671835C701.749742,-69.79741,846.551843,264.041361,1135.292621,253.241984C1427.20407,212.801032,1224.16931,20.589002,1072.73337,-5.935695C742.856377,-59.866278,476.902908,316.324286,297.508973,307.506344C65.444955,314.012192,99.183295,73.572776,328.386666,13.671835C701.749742,-69.79741,846.551843,264.041361,1135.292621,253.241984C1427.20407,212.801032,1224.16931,20.589002,1072.73337,-5.935695C742.856377,-59.866278,476.902908,316.324286,297.508973,307.506344C65.444955,314.012192,99.183295,73.572776,328.386666,13.671835C701.749742,-69.79741,846.551843,264.041361,1135.292621,253.241984C1427.20407,212.801032,1224.16931,20.589002,1072.73337,-5.935695C742.856377,-59.866278,476.902908,316.324286,297.508973,307.506344C65.444955,314.012192,99.183295,73.572776,328.386666,13.671835C701.749742,-69.79741,846.551843,264.041361,1135.292621,253.241984C1427.20407,212.801032,1224.16931,20.589002,1072.73337,-5.935695C742.856377,-59.866278,476.902908,316.324286,297.508973,307.506344C65.444955,314.012192,99.183295,73.572776,328.386666,13.671835C701.749742,-69.79741,846.551843,264.041361,1135.292621,253.241984C1427.20407,212.801032,1224.16931,20.589002,1072.73337,-5.935695C742.856377,-59.866278,476.902908,316.324286,297.508973,307.506344Q65.444955,314.012192,166.943392,117.919537');offset-rotate:0deg"><g id="e1jBRAt2pPf142_tr" transform="rotate(0)"><g transform="translate(-1434.637014,-818.159658)"><path d="M1387.79,781.11c-.058291-19.929479,12.137547-37.84584,30.7-45.1c17.81-6.82,41.5,1.17,50,12.13c11.79,15.18,15.91,52.14-10,69.73-10.87,3-31.64,3.89-44.53,0c.04,0-26.17-13.31-26.17-36.76Z" fill="#a6cc81"/><polyline points="1376.98,788.86 1390.55,780.14 1380.71,765.4" fill="none" stroke="#3e9497" stroke-width="4" stroke-linecap="round" stroke-linejoin="round"/><line x1="1372.92" y1="776.35" x2="1390.55" y2="780.14" fill="none" stroke="#3e9497" stroke-width="4" stroke-linecap="round" stroke-linejoin="round"/><line x1="1456.7" y1="744.9" x2="1468.69" y2="737.32" fill="none" stroke="#3e9497" stroke-width="4" stroke-linecap="round" stroke-linejoin="round"/><polyline points="1409.07,733.49 1406.68,748.94 1392.39,741.36" fill="none" stroke="#3e9497" stroke-width="4" stroke-linecap="round" stroke-linejoin="round"/><polyline points="1482.18,754.4 1472.42,765.4 1482.85,775.69" fill="none" stroke="#3e9497" stroke-width="4" stroke-linecap="round" stroke-linejoin="round"/><line x1="1490.01" y1="765.29" x2="1472.42" y2="765.4" fill="none" stroke="#3e9497" stroke-width="4" stroke-linecap="round" stroke-linejoin="round"/><polyline points="1450.08,727.6 1436.66,735.41 1426.89,722.76" fill="none" stroke="#3e9497" stroke-width="4" stroke-linecap="round" stroke-linejoin="round"/><line x1="1440.23" y1="715.17" x2="1436.66" y2="735.41" fill="none" stroke="#3e9497" stroke-width="4" stroke-linecap="round" stroke-linejoin="round"/><polyline points="1484.42,793.19 1469.77,794.46 1477.1,804.56" fill="none" stroke="#3e9497" stroke-width="4" stroke-linecap="round" stroke-linejoin="round"/><line x1="1398.01" y1="798.88" x2="1388.92" y2="800.6" fill="none" stroke="#3e9497" stroke-width="4" stroke-linecap="round" stroke-linejoin="round"/><line x1="1445.07" y1="761.94" x2="1456.57" y2="770.16" fill="none" stroke="#3e9497" stroke-width="4" stroke-linecap="round" stroke-linejoin="round"/><line x1="1445.78" y1="773.01" x2="1455.44" y2="760.18" fill="none" stroke="#3e9497" stroke-width="4" stroke-linecap="round" stroke-linejoin="round"/><polyline points="1426.35,781.37 1433.5,788.06 1436.66,781.48" fill="none" stroke="#3e9497" stroke-width="4" stroke-linecap="round" stroke-linejoin="round"/><polyline points="1406.34,767.63 1416.63,768.38 1410.99,758.35" fill="none" stroke="#3e9497" stroke-width="4" stroke-linecap="round" stroke-linejoin="round"/><path d="M1407.56,806h65.44c7.72,14.45,13.86,31.9,8.36,47.68-7.51,21.54-22.68,36.26-40.17,36.26h-14.85c-17.49,0-32.66-14.72-40.17-36.26-5.5-15.78.64-33.23,8.36-47.68Z" fill="#3b637c"/><circle r="7.63" transform="translate(1408.99 826.77)" fill="#3e9497"/><circle r="7.63" transform="translate(1432.65 848)" fill="#3e9497"/><circle r="7.63" transform="translate(1457.32 828.1)" fill="#3e9497"/><circle r="7.63" transform="translate(1480.06 848)" fill="#3e9497"/><circle r="7.63" transform="translate(1385.83 848)" fill="#3e9497"/><circle r="7.63" transform="translate(1408.99 868)" fill="#3e9497"/><circle r="7.63" transform="translate(1450.82 873.31)" fill="#3e9497"/><polyline points="1453.39,813.11 1454.57,805.45 1460.01,809.28" fill="none" stroke="#a6cc81" stroke-width="4" stroke-linecap="round" stroke-linejoin="round"/><line x1="1407" y1="811.65" x2="1410.99" y2="803.84" fill="none" stroke="#a6cc81" stroke-width="4" stroke-linecap="round" stroke-linejoin="round"/></g></g></g><g id="e1jBRAt2pPf168_to" style="offset-path:path('M308.676132,770.897858L234.846459,322.64785L218.896878,499.410819L154.033562,433.126852Q99.183295,73.572776,328.386666,13.671835C701.749742,-69.79741,846.551843,264.041361,1135.292621,253.241984C1427.20407,212.801032,1217.9687,55.218424,1077.57918,26.093759C701.801873,-47.793483,476.902908,316.324286,297.508973,307.506344C65.444955,314.012192,91.66442,75.452496,320.867791,15.551555C694.230867,-67.91769,832.710088,225.286836,1121.450866,214.487459C1413.362315,174.046506,1224.16931,20.589002,1072.73337,-5.935695C742.856377,-59.866278,476.902908,316.324286,297.508973,307.506344C65.444955,314.012192,99.183295,73.572776,328.386666,13.671835C701.749742,-69.79741,846.551843,264.041361,1135.292621,253.241984C1427.20407,212.801032,1227.1354,50.738737,1075.69946,24.21404C745.822468,-29.716543,476.902908,316.324286,297.508973,307.506344C65.444955,314.012192,99.183295,73.572776,328.386666,13.671835C701.749742,-69.79741,846.551843,264.041361,1135.292621,253.241984C1427.20407,212.801032,1227.1354,50.738737,1075.69946,24.21404C745.822468,-29.716543,476.902908,316.324286,297.508973,307.506344C65.444955,314.012192,99.183295,73.572776,328.386666,13.671835C701.749742,-69.79741,846.551843,264.041361,1135.292621,253.241984C1427.20407,212.801032,1227.1354,50.738737,1075.69946,24.21404C745.822468,-29.716543,476.902908,316.324286,297.508973,307.506344C65.444955,314.012192,99.183295,73.572776,328.386666,13.671835C701.749742,-69.79741,846.551843,264.041361,1135.292621,253.241984C1427.20407,212.801032,1227.1354,50.738737,1075.69946,24.21404C745.822468,-29.716543,476.902908,316.324286,297.508973,307.506344C65.444955,314.012192,99.183295,73.572776,328.386666,13.671835C701.749742,-69.79741,846.551843,264.041361,1135.292621,253.241984C1427.20407,212.801032,1227.1354,50.738737,1075.69946,24.21404C745.822468,-29.716543,476.902908,316.324286,297.508973,307.506344C65.444955,314.012192,99.183295,73.572776,328.386666,13.671835C701.749742,-69.79741,846.551843,264.041361,1135.292621,253.241984C1427.20407,212.801032,1227.1354,50.738737,1075.69946,24.21404C745.822468,-29.716543,476.902908,316.324286,297.508973,307.506344C65.444955,314.012192,99.183295,73.572776,328.386666,13.671835C701.749742,-69.79741,846.551843,264.041361,1135.292621,253.241984C1427.20407,212.801032,1227.1354,50.738737,1075.69946,24.21404C745.822468,-29.716543,476.902908,316.324286,297.508973,307.506344C65.444955,314.012192,99.183295,73.572776,328.386666,13.671835Q701.749742,-69.79741,763.573005,106.205709');offset-rotate:0deg"><g id="e1jBRAt2pPf168_tr" transform="rotate(0)"><g transform="translate(-308.676132,-770.897858)"><g><g><path id="e1jBRAt2pPf171" d="M392.74,845.38c6.89,46-13.82,43.31-23.06,42.22C324.6,872.44,242,875.14,177.77,875.14C180.49,760.43,229.71,749.58,278,749.58c40,0,100.35,52.9,114.74,95.8Z" transform="translate(.419717 0)" fill="#273850" stroke="#273850" stroke-width="32.99" stroke-linecap="round" stroke-linejoin="round"/><g id="e1jBRAt2pPf172_to" transform="translate(185.891991,813.180764)"><g id="e1jBRAt2pPf172_tr" transform="rotate(0)"><path id="e1jBRAt2pPf172" d="M185.92,813.16c0,0-21.66,46-12.4,133.66c4,37.88,25.75,71.25,61.67,71.25c36.58,0,52-39.49,32.46-63.75" transform="translate(-185.891991,-813.180764)" fill="none" stroke="#273850" stroke-width="30.13" stroke-linecap="round" stroke-linejoin="round"/></g></g><g id="e1jBRAt2pPf173_to" transform="translate(236.47545,837.322567)"><g id="e1jBRAt2pPf173_tr" transform="rotate(0)"><path id="e1jBRAt2pPf173" d="M1149.23059,1455.895048h-29.67225l-36.852521-.263882c16.489054-11.002667,38.882686-57.305494-16.339623-76.491118-43.146816-8.096499-57.419768,42.882474-59.615946,74.01278c18.886948.731382,35.714275,1.520607,75.955569,2.74222" transform="translate(-1057.3057,-1417.587615)" fill="#273850" stroke="#273850" stroke-width="29.49" stroke-linecap="round" stroke-linejoin="round"/></g></g><g id="e1jBRAt2pPf174_to" transform="translate(236.47545,837.322567)"><g id="e1jBRAt2pPf174_tr" transform="rotate(0)"><path id="e1jBRAt2pPf174" d="M1149.23059,1455.895048h-29.67225l-36.852521-.263882c16.489054-11.002667,38.882686-57.305494-16.339623-76.491118-43.146816-8.096499-57.419768,42.882474-59.615946,74.01278c18.886948.731382,35.714275,1.520607,75.955569,2.74222" transform="translate(-1057.3057,-1417.587615)" fill="#273850" stroke="#273850" stroke-width="29.49" stroke-linecap="round" stroke-linejoin="round"/></g></g><g id="e1jBRAt2pPf175_to" transform="translate(280.297604,860.517941)"><g id="e1jBRAt2pPf175_tr" transform="rotate(34.25071)"><path id="e1jBRAt2pPf175" d="M1480.52,1189.65c0,0,32.53-24.62,45.66-27.16c19.37-3.74,18,9.39,18,9.39" transform="translate(-1480.529107,-1189.540988)" opacity="0" fill="none" stroke="#7f8da0" stroke-width="3.77" stroke-linecap="round" stroke-linejoin="round"/></g></g><g id="e1jBRAt2pPf176_to" transform="translate(280.305048,860.555847)"><g id="e1jBRAt2pPf176_tr" transform="rotate(0)"><path id="e1jBRAt2pPf176" d="M251.8,786.94c0,0,45.27,13.94,44.52,49.89s-24.73,47.63-24.73,47.63" transform="translate(-280.305821,-859.952863)" fill="none" stroke="#7f8da0" stroke-width="3.77" stroke-linecap="round" stroke-linejoin="round"/></g></g><g id="e1jBRAt2pPf177_tr" transform="translate(377.142324,769.749963) rotate(0)"><g transform="translate(-377.142324,-769.749963)"><g id="e1jBRAt2pPf178_to" transform="translate(325.202334,850.4399)"><g id="e1jBRAt2pPf178_tr" transform="rotate(0)"><path id="e1jBRAt2pPf178" d="M389.34,899c0,0-24.34-11.27-24.34-11.27-10.668373-4.190926-26.825875-9.143347-37.9-12.1" transform="translate(-330.57916,-880.76)" fill="none" stroke="#273850" stroke-width="30.13" stroke-linecap="round" stroke-linejoin="round"/></g></g><g id="e1jBRAt2pPf179_to" transform="translate(384.863668,583.556319)"><g id="e1jBRAt2pPf179_tr" transform="rotate(-75.202128)"><path id="e1jBRAt2pPf179" d="M412.912065,924.866182c-1.468037-2.425813-4.09125-5.299826-12.527235-10.889321C392.528056,908.575879,376.312969,901.689056,327.1,875.63" transform="translate(-330.57916,-880.76)" opacity="0" fill="none" stroke="#273850" stroke-width="30.13" stroke-linecap="round" stroke-linejoin="round"/></g></g><g id="e1jBRAt2pPf180_to" transform="translate(329.64,878)"><g id="e1jBRAt2pPf180_tr" transform="rotate(0)"><path id="e1jBRAt2pPf180" d="M389.34,899c0,0-24.34-11.27-24.34-11.27-10.668373-4.190926-26.825875-9.143347-37.9-12.1" transform="translate(-329.64,-878)" fill="none" stroke="#273850" stroke-width="30.13" stroke-linecap="round" stroke-linejoin="round"/></g></g></g></g><g id="e1jBRAt2pPf181_to" transform="translate(356.712516,873.375353)"><g id="e1jBRAt2pPf181_tr" transform="rotate(23.784838)"><path id="e1jBRAt2pPf181" d="M593.61,1275c0,0,15.145819,31.415243,32.714212,23.282938C640.984841,1289.076762,624.84,1265.93,624.84,1265.93" transform="translate(-612.165,-1283.030537)" opacity="0" fill="none" stroke="#7f8da0" stroke-width="3.77" stroke-linecap="round" stroke-linejoin="round"/></g></g></g><g><g id="e1jBRAt2pPf183_to" transform="translate(272.845807,798.106154)"><g id="e1jBRAt2pPf183_tr" transform="rotate(-89.972173)"><path id="e1jBRAt2pPf183" d="M518.362594,1544.144851c2.827775-37.557498,7.468132-50.575584-21.800129-95.99145c16.941127,15.391679,17.004971,13.835327,19.834129,17.274681l-21.845506-30.540327l31.353347,33.466598-24.382434-36.851303l22.7733,25.205082-9.096458-12.329663c21.138926,15.402046,42.2856,37.621039,25.27424,110.661879-11.786095-.43241-13.26274-9.159552-22.110489-10.895497Z" transform="translate(-534.112409,-1564.816075)" opacity="0" fill="#273850"/></g></g><path id="e1jBRAt2pPf184" d="M540.977467,1560.578029l.570628-35.575981-21.148083,41.604926c-5.189762,3.243652-20.193203-1.944381-20.733203-1.764381c3.793485,2.186686,8.24334,33.050223,15.855073,39.840139l-20.491035-4.610116l25.464742,27.964113-12.541959,3.027463l51.612512,14.219648Z" transform="matrix(.720925-.693013 0.693013 0.720925-1196.0086 48.511213)" opacity="0" fill="#273850"/><g id="e1jBRAt2pPf185_to" transform="translate(348.447197,751.53887)"><g id="e1jBRAt2pPf185_tr" transform="rotate(-40.35889)"><path id="e1jBRAt2pPf185" d="M659.098857,1617.465856l30.13638-32.362816-16.990838,1.209312c1.831682-3.520358,4.150503-34.045328,5.580503-35.955328s-8.05765,20.982391-12.243127,27.436963l-10.361629-52.168756-3.701769,28.647069-13.729969-37.629029L627.78,1520.2l-35.590383-15.220883l6.39326,9.371016-39.237714-6.114381.421125,9.816674-21.856027,1.271355-8.654476,22.624071Z" transform="translate(-623.865179,-1570.47)" opacity="0" fill="#273850"/></g></g></g><g id="e1jBRAt2pPf186_to" transform="translate(396.8,857.94)"><g id="e1jBRAt2pPf186_tr" transform="rotate(0)"><g transform="translate(-396.8,-857.94)"><g id="e1jBRAt2pPf187_tr" transform="translate(415.006757,816.486801) rotate(0)"><g transform="translate(-415.006757,-816.486801)"><polygon id="e1jBRAt2pPf188" points="1293,768 1275.96,773.82 1237.68,781.48 1225.52,720.68 1286.32,708.52 1293.61,745 1293,768" transform="matrix(.970426 0.2414-.2414 0.970426-545.724341-214.478939)" opacity="0" fill="#f1d378"/><g id="e1jBRAt2pPf189_to" transform="translate(438.77071,833.773598)"><g id="e1jBRAt2pPf189_tr" transform="rotate(0)"><path id="e1jBRAt2pPf189" d="M415.08,816.48c0,0,23-22.6,58.24-35.8-4.25,57-16,86.48-16,86.48Z" transform="translate(-438.77071,-833.773598)" fill="#273850" stroke="#273850" stroke-width="3.77" stroke-linecap="round" stroke-linejoin="round"/></g></g></g></g><g id="e1jBRAt2pPf190_to" transform="translate(349.262969,825.672353)"><g id="e1jBRAt2pPf190_tr" transform="rotate(0)"><path d="M326.86,860c0,0-8.75-50.25-8.3-78.64C348.25,790,380,815.31,380,815.31Z" transform="translate(-349.262969,-825.672353)" fill="#273850" stroke="#273850" stroke-width="3.77" stroke-linecap="round" stroke-linejoin="round"/></g></g><g id="e1jBRAt2pPf191_to" transform="translate(349.262969,825.672353)"><g id="e1jBRAt2pPf191_tr" transform="rotate(0)"><path id="e1jBRAt2pPf191" d="M355.78,797.36c-12.036431-6.156423-24.470797-11.501664-37.22-16s-4.4,27,2.64,53.35" transform="translate(-349.262969,-825.672353)" fill="#273850" stroke="#7f8da0" stroke-width="3.77" stroke-linecap="round" stroke-linejoin="round"/></g></g><path d="M458.69,874.85c-5.47,22.59-34.59,25.1-72.36,21.9s-63.81-11.36-62.49-35.52c1.8-33,35.11-55.5,69.94-52.55s72.22,35.86,64.91,66.17Z" fill="#273850"/><path id="e1jBRAt2pPf193" d="M-20.41,0c7.012166,3.308764,11.360575,7.52872,22.632706,7.52872s12.323279-2.906287,18.187294-7.52872C15.714399,4.467467,13.822371,8.146306,2.550239,8.146306s-17.062682-4.265489-22.960239-8.146306Z" transform="matrix(.930865-.365364 0.365364 0.930865 430.857689 852.241504)" fill="#fff" stroke-width="3.77" stroke-linecap="round" stroke-linejoin="round"/><path id="e1jBRAt2pPf194" d="M-6.344889,-2.586621c0-11.476478,4.194513-14.72691,6.344889-18.193379-2.231577,4.793474-4.785364,7.232928-4.785364,18.709405s3.456448,14.258019,7.190673,22.442446c-3.016081-3.790965-8.750198-11.481995-8.750198-22.958472Z" transform="matrix(.516384-.856357 0.856357 0.516384 361.404566 848.250472)" fill="#fff" stroke-width="3.77" stroke-linecap="round" stroke-linejoin="round"/><g id="e1jBRAt2pPf195_to" transform="translate(364.299483,852.148508)"><g id="e1jBRAt2pPf195_ts" transform="rotate(-80.769998) scale(1,1)"><ellipse rx="16.87" ry="14.34" transform="translate(0,0)" fill="#273850" stroke="#273850" stroke-width="3.77" stroke-linecap="round" stroke-linejoin="round"/></g></g><g id="e1jBRAt2pPf196_to" transform="translate(429.683675,854.679251)"><g id="e1jBRAt2pPf196_ts" transform="rotate(-80.769998) scale(1,1)"><ellipse rx="15.9" ry="13.52" transform="translate(0,0)" fill="#273850" stroke="#273850" stroke-width="3.77" stroke-linecap="round" stroke-linejoin="round"/></g></g><path id="e1jBRAt2pPf197" d="M387.93447,883.841338c5.98718-.146048,10.524133-3.273235,11.311637-10.691165.504789,7.637409,6.018322,10.485554,11.264336,10.840041" opacity="0" fill="none" stroke="#7f8da0" stroke-width="2.34" stroke-linecap="round" stroke-linejoin="round"/><path id="e1jBRAt2pPf198" d="M453.77,836.83L397.172724,818.930714L341.646998,830.573856L349.33,820.95L455.27,829.9L453.77,836.83Z" fill="#273850"/><g id="e1jBRAt2pPf199_to" transform="translate(398.8,870.917005)"><path d="M392.92,869.68c2.45-1.47,8.92-1.45,11.76.94-3.96,4.67-10.57,2-11.76-.94Z" transform="translate(-398.8,-870.917005)" fill="#7f8da0"/></g><line x1="456.63" y1="887.08" x2="461.76" y2="891.22" fill="none" stroke="#273850" stroke-width="3.77" stroke-linecap="round" stroke-linejoin="round"/><line x1="445.6" y1="895.19" x2="448.78" y2="902.14" fill="none" stroke="#273850" stroke-width="3.77" stroke-linecap="round" stroke-linejoin="round"/><line x1="322.69" y1="875.14" x2="316.34" y2="876.93" fill="none" stroke="#273850" stroke-width="3.77" stroke-linecap="round" stroke-linejoin="round"/><line x1="329.64" y1="886.94" x2="323.98" y2="892.07" fill="none" stroke="#273850" stroke-width="3.77" stroke-linecap="round" stroke-linejoin="round"/><path id="e1jBRAt2pPf204" d="M411.59,859.09c6.458392,1.778297,13.238038,2.055367,19.82.81c8.202313-1.464013,15.168576-6.85026,18.65-14.42" fill="none" stroke="#7f8da0" stroke-width="3.77" stroke-linecap="round" stroke-linejoin="round"/><path id="e1jBRAt2pPf205" d="M379.62,856.61c0,0-12.32,1-20.71-3.37-11.72-6.11-15.65-15.1-15.65-15.1" fill="none" stroke="#7f8da0" stroke-width="3.77" stroke-linecap="round" stroke-linejoin="round"/></g></g></g></g></g></g></g><g id="e1jBRAt2pPf206_to" style="offset-path:path('M673.78512,863.214271L644.5,862.5L644.5,862.5L944.26,429.522163L944.26,429.522163C1417.098912,574.292566,1504.913165,187.792233,1164.663937,159.5C733.963589,121.673583,659.620902,494.203375,390.53,480.976463C158.465982,487.482312,234.356629,277.138022,463.56,217.237081C836.923076,133.767836,911.784222,443.299377,1200.525,432.5C1492.436449,392.059047,1320.091209,166.068039,1164.663937,159.5C788.886631,85.612759,569.923935,489.794405,390.53,480.976463C158.465982,487.482312,188.028545,130.853525,417.231916,70.952584C790.594992,-12.516661,950.308219,257.271462,1239.048997,246.472085C1530.960446,206.031133,1333.199015,53.02686,1177.771744,46.458822C801.994437,-27.42842,579.724547,326.490147,400.330612,317.672206C168.266595,324.178054,192.371432,88.443047,421.574803,28.542106C604.70781,-17.769323,876.681117,111.292445,980.331882,216.261178C1203.738203,523.668768,1680.487018,567.880166,1751.338654,331.066108C1795.898186,58.264264,1378.816487,93.923249,1175.417936,55.874057C799.640629,-18.013184,579.282332,329.14344,399.888397,320.325499C167.824379,326.831347,192.663341,90.194489,421.866712,30.293548C795.229787,-53.175697,939.416817,305.863869,1228.157595,295.064493C1520.069044,254.62354,1378.816487,93.923249,1175.417936,55.874057C799.640629,-18.013184,579.282332,329.14344,399.888397,320.325499C167.824379,326.831347,192.663341,90.194489,421.866712,30.293548C795.229787,-53.175697,939.416817,305.863869,1228.157595,295.064493C1520.069044,254.62354,1378.816487,93.923249,1175.417936,55.874057C799.640629,-18.013184,579.282332,329.14344,399.888397,320.325499C167.824379,326.831347,192.663341,90.194489,421.866712,30.293548C795.229787,-53.175697,939.416817,305.863869,1228.157595,295.064493C1520.069044,254.62354,1378.816487,93.923249,1175.417936,55.874057C799.640629,-18.013184,579.282332,329.14344,399.888397,320.325499C167.824379,326.831347,192.663341,90.194489,421.866712,30.293548C795.229787,-53.175697,939.416817,305.863869,1228.157595,295.064493C1520.069044,254.62354,1378.816487,93.923249,1175.417936,55.874057C799.640629,-18.013184,579.282332,329.14344,399.888397,320.325499C167.824379,326.831347,192.663341,90.194489,421.866712,30.293548C795.229787,-53.175697,939.416817,305.863869,1228.157595,295.064493C1520.069044,254.62354,1378.816487,93.923249,1175.417936,55.874057C799.640629,-18.013184,579.282332,329.14344,399.888397,320.325499C167.824379,326.831347,192.663341,90.194489,421.866712,30.293548C795.229787,-53.175697,939.416817,305.863869,1228.157595,295.064493C1520.069044,254.62354,1378.816487,93.923249,1175.417936,55.874057C799.640629,-18.013184,579.282332,329.14344,399.888397,320.325499C167.824379,326.831347,192.663341,90.194489,421.866712,30.293548C795.229787,-53.175697,939.416817,305.863869,1228.157595,295.064493C1520.069044,254.62354,1378.816487,93.923249,1175.417936,55.874057C799.640629,-18.013184,579.282332,329.14344,399.888397,320.325499C167.824379,326.831347,192.663341,90.194489,421.866712,30.293548Q795.229787,-53.175697,551.865179,18.148565');offset-rotate:0deg"><g id="e1jBRAt2pPf206_tr" transform="rotate(29.370917)"><g transform="translate(-644.5,-862.5)"><circle r="34.5" transform="translate(644.5 862.5)" fill="#ed8e12"/><path d="M679,862.5c0,19.053824-15.446176,34.5-34.5,34.5c7.5-8,14.5-15.45,14.5-34.5s-5-30.5-14.5-34.5c19.053824,0,34.5,15.446176,34.5,34.5Z" fill="#f1d378"/></g></g></g></g></g></g><g><g id="e1jBRAt2pPf213_to" transform="translate(759.421935,434.103785)"><g id="e1jBRAt2pPf213" transform="translate(-100.174999,-100.019997)"><g><line id="e1jBRAt2pPf215" x1="100.17" y1="47.68" x2="100.17" y2="29.68" fill="none" stroke="#8b959e" stroke-width="2.43" stroke-linecap="round" stroke-linejoin="round" stroke-dashoffset="19" stroke-dasharray="19"/><line id="e1jBRAt2pPf216" x1="54.19" y1="74.23" x2="38.6" y2="65.23" fill="none" stroke="#8b959e" stroke-width="2.43" stroke-linecap="round" stroke-linejoin="round" stroke-dashoffset="19" stroke-dasharray="19"/><line id="e1jBRAt2pPf217" x1="54.19" y1="127.33" x2="38.6" y2="136.33" fill="none" stroke="#8b959e" stroke-width="2.43" stroke-linecap="round" stroke-linejoin="round" stroke-dashoffset="19" stroke-dasharray="19"/><line id="e1jBRAt2pPf218" x1="146.16" y1="74.23" x2="161.75" y2="65.23" fill="none" stroke="#8b959e" stroke-width="2.43" stroke-linecap="round" stroke-linejoin="round" stroke-dashoffset="19" stroke-dasharray="19"/><line id="e1jBRAt2pPf219" x1="146.16" y1="127.33" x2="161.75" y2="136.33" fill="none" stroke="#8b959e" stroke-width="2.43" stroke-linecap="round" stroke-linejoin="round" stroke-dashoffset="19" stroke-dasharray="19"/></g><path id="e1jBRAt2pPf220" d="M139,100.78c.006521-18.989896-13.739425-35.191069-32.476802-38.277635s-36.953587,7.849552-43.038456,25.838175s1.751794,37.737439,18.515258,46.65946c2.199974,1.156875,3.737235,3.270609,4.16,5.72l1,5.53c.326504,1.921745,1.990717,3.3283,3.94,3.33h18.22c1.971918.027829,3.669867-1.385714,4-3.33l1-5.53c.408805-2.425117,1.919656-4.523315,4.09-5.68c12.674993-6.729247,20.596197-19.909454,20.59-34.26Z" fill="#f2d680" fill-opacity="0" stroke="#8b959e" stroke-width="2.43" stroke-linecap="round" stroke-linejoin="round" stroke-dashoffset="261.11" stroke-dasharray="261.11"/><path id="e1jBRAt2pPf221" d="M89.85,159.62h20.65m1.27-5h-23.19M104,121.71c5.93-5.93,2.52-19,5.16-23.41s10.1-1.82,8.75,3.25-13.15,6.13-17.71,6.13-16.32-1-17.7-6.13s6.11-7.66,8.75-3.25-.77,17.48,5.16,23.41v27.91h7.59Zm-8.78,42.91c0,3.17,2.23,5.74,5,5.74s5-2.57,5-5.74Z" fill="none" stroke="#8b959e" stroke-width="2.43" stroke-linecap="round" stroke-linejoin="round" stroke-dashoffset="248.99" stroke-dasharray="248.99"/></g></g><g transform="translate(-3.975902 10.783332)"><g id="e1jBRAt2pPf223_to" style="offset-path:path('M-58.596684,659.16461C53.349714,851.070751,381.265136,471.837706,468.696872,777.533168Q468.704171,777.352597,468.696872,777.533168C425.564043,478.25341,624.271564,592.897336,572.203938,624.919784C534.882086,643.171147,499.455559,544.220955,620.382933,534.343274C775.897828,519.527968,875.140618,423.556526,924.227483,590.995484Q924.470968,590.233312,924.227483,590.995484C1135.080607,160.64608,1724.088442,546.807294,2008.329569,111.315936');offset-rotate:0deg"><circle id="e1jBRAt2pPf223" r="3.150595" transform="translate(0,0)" fill="#464686"/></g></g></g></svg>
